<svg xmlns="http://www.w3.org/2000/svg" width="24.766" height="24.766" viewBox="0 0 24.766 24.766"><defs><style>.a{fill:#fff;}</style></defs><g transform="translate(-0.001)"><g transform="translate(0.001)"><path class="a" d="M12.384,0A12.383,12.383,0,1,0,24.766,12.383,12.383,12.383,0,0,0,12.384,0Zm5.587,10.868-4.627,4.627a1.131,1.131,0,0,1-.155.2,1.178,1.178,0,0,1-1.831-.2L6.712,10.847A1.156,1.156,0,1,1,8.346,9.212l4.005,4,3.984-3.985a1.156,1.156,0,0,1,1.635,1.635Z" transform="translate(-0.001 0)"/></g></g></svg>